<?xml version="1.0" encoding="utf-8"?>
<!-- Generator: Adobe Illustrator 17.0.0, SVG Export Plug-In . SVG Version: 6.00 Build 0)  -->
<!DOCTYPE svg PUBLIC "-//W3C//DTD SVG 1.1//EN" "http://www.w3.org/Graphics/SVG/1.1/DTD/svg11.dtd">
<svg version="1.1" id="Layer_1" xmlns="http://www.w3.org/2000/svg" xmlns:xlink="http://www.w3.org/1999/xlink" x="0px" y="0px"
	 width="64px" height="64px" viewBox="0 0 64 64" enable-background="new 0 0 64 64" xml:space="preserve">
<path d="M52,13.475H12c-2.2,0-4,1.8-4,4v12.481h12.301l2.688-6.877c0.307-0.785,1.094-1.299,1.914-1.271
	c0.842,0.022,1.581,0.569,1.847,1.368l3.803,11.437l4.104-9.763c0.302-0.717,0.992-1.194,1.77-1.223
	c0.802-0.034,1.502,0.396,1.855,1.089l2.676,5.241h2.709c1.104,0,2,0.896,2,2s-0.896,2-2,2h-3.934c-0.752,0-1.439-0.421-1.781-1.09
	l-1.275-2.499l-4.499,10.7c-0.313,0.744-1.041,1.225-1.843,1.225c-0.026,0-0.052,0-0.078-0.002
	c-0.833-0.031-1.558-0.576-1.821-1.367L24.7,29.689l-1.17,2.995c-0.3,0.767-1.039,1.272-1.863,1.272H8v12.568c0,2.2,1.8,4,4,4h40
	c2.2,0,4-1.8,4-4v-29.05C56,15.275,54.2,13.475,52,13.475z" fill="white"/>
</svg>
